# xmcd
#
# Track frame offsets:
#	182
#	15275
#	29897
#	48885
#	68032
#	83860
#	102375
#	113770
#	131515
#	150265
#	159445
#	172327
#	190080
#	204757
#	218085
#	232552
#
# Disc length: 3304 seconds
#
# Revision: 1
# Processed by: cddbd v1.4PL0 Copyright (c) Steve Scherf et al.
# Submitted via: CDmax 2.0
#
DISCID=c10ce610
DTITLE=Gino Sound Orchestra And Singers - Espana Ole Volume 2
DYEAR=2000
DGENRE=Country
TTITLE0=Pida Me La
TTITLE1=Bella Espana
TTITLE2=Cielito Lindo
TTITLE3=Quiereme Mucho
TTITLE4=Agapimu
TTITLE5=Quiere Saber
TTITLE6=Sevillanas
TTITLE7=La Colegiala
TTITLE8=Un Sentimental
TTITLE9=Adelita
TTITLE10=El Gato Montes (Instr.)
TTITLE11=Charly
TTITLE12=Y No Provocan
TTITLE13=Quireo
TTITLE14=El Chiringuito
TTITLE15=Y Viva Espana
EXTD=
EXTT0=
EXTT1=
EXTT2=
EXTT3=
EXTT4=
EXTT5=
EXTT6=
EXTT7=
EXTT8=
EXTT9=
EXTT10=
EXTT11=
EXTT12=
EXTT13=
EXTT14=
EXTT15=
PLAYORDER=
